<svg width="90" height="90" viewBox="0 0 90 90" fill="none" xmlns="http://www.w3.org/2000/svg">
<circle cx="60.3" cy="22.499" r="4.5" fill="white" fill-opacity="0.5"/>
<path d="M28.7998 0.015625C38.0303 0.015625 48.3692 0.0351178 57.5996 0H67.5C72.1822 7.83245e-06 74.565 2.30693 75.915 3.59961C78.075 6.07454 79.2001 8.12387 79.2002 12.5996V34.2002C79.2003 36.6751 80.2784 38.7106 81.4502 40.0498C83.0252 41.8498 85.0504 43.0995 88.6504 43.2002C89.325 43.2191 89.3251 43.2002 90 43.2002V45H81.4502C78.7503 45 75.7361 43.2299 74.25 41.4004C72.5292 39.2818 72 37.5751 72 34.2002V11.7002C72 11.0252 71.7746 10.125 71.0996 9C69.8626 7.61161 68.4 7.2002 67.5 7.2002H53.1006C52.6506 7.2002 51.1166 7.2196 49.9502 8.5498C48.7586 9.91219 48.6006 10.8002 48.6006 11.7002V45H0V43.2002C2.92497 43.2002 5.26484 41.8498 6.83984 40.0498C8.01166 38.7106 8.99995 36.6751 9 34.2002V12.5996C9.00007 8.12387 10.1252 6.07454 12.2852 3.59961C13.6352 2.30693 16.018 0 20.7002 0H28.7998V0.015625Z" fill="white" fill-opacity="0.5"/>
<path d="M48.6006 45V78.2998C48.6006 84.5998 43.4251 90 37.1885 90H20.7002C16.018 90 13.6352 87.6931 12.2852 86.4004C10.1252 83.9255 9.00007 81.8761 9 77.4004V55.7998C8.99995 53.3249 8.01166 51.2894 6.83984 49.9502C5.26484 48.1502 2.92497 46.7998 0 46.7998V45H48.6006ZM90 46.7998C89.3251 46.7998 89.325 46.7809 88.6504 46.7998C85.0504 46.9005 83.0252 48.1502 81.4502 49.9502C80.2784 51.2894 79.2003 53.3249 79.2002 55.7998V77.4004C79.2001 81.8761 78.075 83.9255 75.915 86.4004C74.565 87.6931 72.1822 90 67.5 90H57.5996V82.7998H67.5C68.4 82.7998 69.8626 82.3884 71.0996 81C71.7746 79.875 72 78.9748 72 78.2998V55.7998C72 52.4249 72.5292 50.7182 74.25 48.5996C75.7361 46.7701 78.7503 45 81.4502 45H90V46.7998Z" fill="white"/>
</svg>
